<svg xmlns="http://www.w3.org/2000/svg" width="1200" height="700" viewBox="0 0 1200 700"><rect width="100%" height="100%" fill="#fff"/><path fill="#FF003C" d="M487.65 263.025H375.3v70.17h88.55v36.23H375.3v71.57h112.35v37.63h-159.6v-253.05h159.6zm35.35-44.45h43.23v260.05H523zm142.28 260.05h-43.23v-147l-15.57-2.45q-5.08-1.05-8.14-3.59t-3.06-7.26v-17.68h26.77v-13.3q0-15.4 4.64-27.65t13.3-20.82q8.66-8.58 21.09-13.13 12.42-4.55 28-4.55 12.42 0 23.1 3.33l-.88 21.7q-.17 2.45-1.4 3.94-1.22 1.48-3.23 2.27-2.02.79-4.64 1.05-2.63.26-5.6.26-7.7 0-13.74 1.67-6.04 1.66-10.24 5.77t-6.38 10.85q-2.19 6.74-2.19 16.71v11.9h46.72v30.8h-45.32zm164.5-46.38v-30.27q-18.73.87-31.5 3.24-12.78 2.36-20.48 6.03-7.7 3.68-11.02 8.58-3.33 4.9-3.33 10.67 0 11.38 6.74 16.28t17.59 4.9q13.3 0 23.01-4.81 9.71-4.82 18.99-14.62m-91.35-94.32-7.7-13.83q30.97-28.35 74.55-28.35 15.75 0 28.17 5.17 12.43 5.16 21 14.35 8.58 9.18 13.04 21.96 4.46 12.77 4.46 28v113.4h-19.6q-6.12 0-9.45-1.84-3.32-1.84-5.25-7.44l-3.85-12.95q-6.82 6.13-13.3 10.77-6.47 4.63-13.47 7.78t-14.96 4.82q-7.97 1.66-17.59 1.66-11.38 0-21-3.06-9.63-3.07-16.63-9.19-7-6.13-10.85-15.23t-3.85-21.17q0-6.83 2.28-13.56 2.27-6.74 7.44-12.87 5.16-6.12 13.38-11.55 8.23-5.42 20.22-9.45 11.98-4.02 27.91-6.56 15.92-2.54 36.4-3.06v-10.5q0-18.03-7.7-26.69t-22.23-8.66q-10.5 0-17.41 2.45t-12.16 5.51-9.54 5.51-9.54 2.45q-4.55 0-7.7-2.36t-5.07-5.51"/></svg>