<svg viewBox="0 0 89 36" fill="none" width="89" height="36" xmlns="http://www.w3.org/2000/svg"><path d="M82.198 13.125c-2.269 0-4.48.69-6.253 1.946v2.873c1.86-1.279 3.799-1.902 5.908-1.902 2.873 0 3.476 1.182 3.476 2.172 0 1.582-1.539 1.956-2.66 2.228-.342.088-.691.171-1.044.257-3.333.806-6.78 1.64-6.78 5.396 0 2.84 1.752 4.469 4.808 4.469 2.21 0 3.944-.849 5.155-2.526l.693-.956v3.174h3.258V18.453c0-3.338-2.454-5.331-6.561-5.331m3.098 10.531c0 2.455-1.924 4.236-4.575 4.236-2.049 0-2.478-1.069-2.478-1.965 0-1.943 1.76-2.417 4.197-3.072l.307-.083c.886-.254 1.567-.466 2.008-.668l.542-.251zm-25.593 3.952c-.902 0-1.651-.484-1.985-.906q-.503-.633-.503-2.295V6.234h-3.492V24.71q0 2.973 1.287 4.414 1.289 1.443 3.951 1.443 1.789-.001 3.231-.612v-2.878c-.583.369-1.752.528-2.49.528m-8.479-4.633H39.276c.135 2.856 2.417 4.47 5.437 4.47 2.115 0 4.128-.739 6.142-2.185v3.361c-1.912 1.411-3.994 1.949-6.176 1.949-5.303 0-8.76-3.395-8.76-8.705s3.323-8.738 8.189-8.738c4.867 0 7.115 3.126 7.115 8.268v1.581m-11.914-2.722h8.592c0-2.387-1.343-4-3.96-4s-4.196 1.411-4.632 4M74.434 9.899c-1.04-.538-2.08-.84-3.02-.84-1.88 0-3.323 1.11-3.323 3.193v1.176h5.437v2.958h-5.437v13.881h-3.39V16.385h-3.692v-2.958h3.692v-1.378c0-3.898 2.785-6.116 6.176-6.116a8.6 8.6 0 0 1 3.557.773zm-47.886 2.345 1.465-1.468c.428.552.82 1.136 1.172 1.744l-9.49 9.503-5.681 5.688c.524.117 1.069.18 1.628.18 3.136 0 5.828-1.927 6.964-4.661l1.902.788a9.7 9.7 0 0 1-2.385 3.406h-.001q-.238.218-.49.419l-.088.068q-.245.192-.502.37l-.011.008a10 10 0 0 1-1.192.691l-.02.01a9 9 0 0 1-.713.308q-.283.112-.575.205l-.025.008a10 10 0 0 1-.765.204q-.302.069-.612.119l-.021.004a10 10 0 0 1-.805.087q-.324.024-.654.025h-.005q-.234 0-.466-.011-.073-.004-.145-.01-.158-.009-.314-.024-.086-.008-.174-.019a10 10 0 0 1-.727-.112l-.184-.038q-.132-.029-.262-.06l-.176-.043q-.14-.038-.277-.079-.076-.021-.151-.045a9.6 9.6 0 0 1-2.349-1.114l1.496-1.498 10.275-10.29 1.497-1.499 2.863-2.865M2.059 20.342c0-7.5 6.094-13.601 13.583-13.601a13.5 13.5 0 0 1 8.085 2.682l1.469-1.471a15.54 15.54 0 0 0-9.555-3.273C7.017 4.678 0 11.704 0 20.342c0 3.6 1.223 6.919 3.27 9.567l1.467-1.469a13.53 13.53 0 0 1-2.678-8.1m26.131 5.206a13.7 13.7 0 0 1-2.948 4.407l.002.002-.06.058q-.174.173-.355.34l-.215.191q-.118.106-.238.207-.106.089-.214.176-.124.101-.252.199-.102.079-.206.156-.215.16-.437.31-.088.06-.177.115-.157.106-.317.204l-.21.127q-.157.092-.315.181-.098.056-.197.109-.245.133-.498.256l-.142.065q-.199.094-.4.182l-.203.085q-.186.077-.372.148l-.19.071q-.274.1-.552.186l-.099.029a12 12 0 0 1-1.096.282q-.093.022-.187.04-.294.06-.595.107-.028.005-.056.007-.277.04-.555.07l-.197.019q-.222.02-.446.034l-.194.011q-.307.014-.613.015h-.014a13.5 13.5 0 0 1-8.088-2.681l-1.467 1.469A15.55 15.55 0 0 0 15.64 36c6.505 0 12.095-3.998 14.45-9.67l-1.902-.788zm-7.329-13.253-7.537 7.547-4.231 4.236-1.496 1.498-.007-.011a9 9 0 0 1-.329-.545 9 9 0 0 1-.575-1.227q-.108-.278-.199-.563l-.002-.005-.045-.154a8 8 0 0 1-.122-.453l-.06-.259-.037-.187-.024-.133-.023-.129-.029-.187a19 19 0 0 1-.055-.454q-.014-.154-.024-.308l-.01-.15a9 9 0 0 1-.011-.466v-.002a9 9 0 0 1 .037-.818c.019-.214.04-.424.073-.632q.001-.011.004-.021a10 10 0 0 1 .155-.778q.069-.294.156-.579.007-.027.017-.055.089-.279.193-.549.032-.086.068-.171.105-.259.223-.512l.048-.097q.12-.243.252-.476l.1-.174q.13-.223.274-.438a10 10 0 0 1 .67-.893q.074-.088.151-.174.15-.168.305-.33a9.554 9.554 0 0 1 12.088-1.35m-3.589.678a7.5 7.5 0 0 0-1.627-.179c-4.156 0-7.538 3.386-7.538 7.548 0 .559.062 1.105.179 1.629zM35.991 2.469v-.014c0-1.33 1.017-2.455 2.446-2.455.827 0 1.334.231 1.823.644l-.528.631c-.366-.312-.726-.509-1.328-.509-.874 0-1.537.767-1.537 1.676v.014c0 .976.643 1.696 1.612 1.696a1.94 1.94 0 0 0 1.146-.36v-.888h-1.213v-.726h2.019v1.995a3.02 3.02 0 0 1-1.978.739c-1.483 0-2.46-1.058-2.46-2.442M42.191.081h2.114c.596 0 1.064.177 1.368.475.251.258.393.61.393 1.024v.014c0 .78-.467 1.248-1.132 1.438l1.28 1.798h-.983l-1.165-1.655h-1.043V4.83h-.834zm2.053 2.354c.596 0 .975-.312.975-.794v-.014c0-.509-.366-.787-.983-.787h-1.213v1.595zm3.448.38V.081h.834v2.7c0 .881.454 1.356 1.199 1.356s1.193-.447 1.193-1.322V.081h.834v2.694c0 1.418-.799 2.13-2.039 2.13-1.239 0-2.019-.712-2.019-2.089M53.573.081h1.87c1.104 0 1.802.631 1.802 1.587v.014c0 1.066-.853 1.621-1.896 1.621h-.942V4.83h-.834zm1.801 2.47c.63 0 1.023-.353 1.023-.849v-.014c0-.556-.399-.848-1.023-.848h-.968v1.71zm3.192-.082v-.014c0-1.336 1.03-2.455 2.485-2.455s2.472 1.105 2.472 2.442v.014c0 1.336-1.03 2.455-2.486 2.455s-2.472-1.105-2.472-2.442m4.084 0v-.014c0-.922-.67-1.69-1.612-1.69s-1.598.754-1.598 1.676v.014c0 .922.67 1.688 1.612 1.688s1.598-.753 1.598-1.676" fill="#fe003c"/></svg>