<svg xmlns="http://www.w3.org/2000/svg" width="80" height="80" viewBox="0 0 80 80"><rect width="100%" height="100%" fill="#DDDDDD"/><path fill="#999999" d="M18.845 44.09q.46 0 .81-.13.34-.13.58-.36.23-.23.35-.56.12-.32.12-.69 0-.9-.49-1.35-.5-.46-1.37-.46t-1.36.46q-.5.45-.5 1.35 0 .37.12.69.12.33.36.56t.58.36q.35.13.8.13m0-8.24q-.41 0-.71.13t-.5.34-.29.49-.09.58q0 .33.08.63.07.31.26.54.19.24.5.38.3.14.75.14t.76-.14.5-.38q.18-.23.26-.54.08-.3.08-.63 0-.3-.1-.58-.09-.28-.29-.49-.19-.21-.49-.34t-.72-.13m1.83 3.92q.99.32 1.47.98.47.67.47 1.63 0 .72-.27 1.3-.28.58-.77 1-.5.41-1.19.64-.7.22-1.54.22t-1.53-.22q-.69-.23-1.19-.64-.49-.42-.77-1-.27-.58-.27-1.3 0-.96.47-1.63.47-.66 1.46-.98-.78-.33-1.18-.94-.39-.61-.39-1.46 0-.62.25-1.15t.7-.93q.45-.39 1.08-.61.62-.22 1.37-.22t1.38.22 1.08.61q.45.4.7.93t.25 1.15q0 .85-.39 1.46-.4.61-1.19.94m10.85.23q0 1.42-.3 2.46-.31 1.05-.84 1.73-.54.68-1.27 1.02-.73.33-1.58.33t-1.57-.33q-.73-.34-1.26-1.02t-.83-1.73q-.3-1.04-.3-2.46 0-1.43.3-2.47t.83-1.73q.53-.68 1.26-1.01.72-.33 1.57-.33t1.58.33 1.27 1.01q.53.69.84 1.73.3 1.04.3 2.47m-1.91 0q0-1.18-.18-1.95-.17-.77-.46-1.23t-.66-.64q-.38-.19-.78-.19t-.77.19q-.37.18-.66.64-.28.46-.45 1.23t-.17 1.95q0 1.17.17 1.95.17.77.45 1.23.29.46.66.64t.77.18.78-.18q.37-.18.66-.64t.46-1.23q.18-.78.18-1.95m13.82 2.94-.98.97-2.55-2.55-2.56 2.56-.98-.97 2.56-2.57-2.44-2.44.97-.98 2.45 2.45 2.43-2.44.99.98-2.44 2.44zm8.8 1.15q.46 0 .81-.13.34-.13.58-.36.23-.23.35-.56.12-.32.12-.69 0-.9-.49-1.35-.5-.46-1.37-.46t-1.36.46q-.5.45-.5 1.35 0 .37.12.69.12.33.36.56t.58.36q.35.13.8.13m0-8.24q-.41 0-.71.13t-.5.34-.29.49-.09.58q0 .33.08.63.07.31.26.54.19.24.5.38.3.14.75.14t.76-.14.5-.38q.18-.23.26-.54.08-.3.08-.63 0-.3-.1-.58-.09-.28-.29-.49-.19-.21-.49-.34t-.72-.13m1.83 3.92q.99.32 1.47.98.47.67.47 1.63 0 .72-.27 1.3-.28.58-.77 1-.5.41-1.19.64-.7.22-1.54.22t-1.53-.22q-.69-.23-1.19-.64-.49-.42-.77-1-.27-.58-.27-1.3 0-.96.47-1.63.47-.66 1.46-.98-.78-.33-1.18-.94-.39-.61-.39-1.46 0-.62.25-1.15t.7-.93q.45-.39 1.08-.61.62-.22 1.37-.22t1.38.22 1.08.61q.45.4.7.93t.25 1.15q0 .85-.39 1.46-.4.61-1.19.94m10.85.23q0 1.42-.3 2.46-.31 1.05-.84 1.73-.54.68-1.27 1.02-.73.33-1.58.33t-1.57-.33q-.73-.34-1.26-1.02t-.83-1.73q-.3-1.04-.3-2.46 0-1.43.3-2.47t.83-1.73q.53-.68 1.26-1.01.72-.33 1.57-.33t1.58.33 1.27 1.01q.53.69.84 1.73.3 1.04.3 2.47m-1.91 0q0-1.18-.18-1.95-.17-.77-.46-1.23t-.66-.64q-.38-.19-.78-.19t-.77.19q-.37.18-.66.64-.28.46-.45 1.23t-.17 1.95q0 1.17.17 1.95.17.77.45 1.23.29.46.66.64t.77.18.78-.18q.37-.18.66-.64t.46-1.23q.18-.78.18-1.95"/></svg>